<?xml version="1.0" encoding="UTF-8" standalone="no"?>
<!-- Created with Inkscape (http://www.inkscape.org/) -->

<svg
   width="47.525955mm"
   height="40.511425mm"
   viewBox="0 0 47.525955 40.511425"
   version="1.1"
   id="svg1"
   inkscape:version="1.4.2 (f4327f4, 2025-05-13)"
   sodipodi:docname="Head_DarkBackground-2025.10.26-001.svg"
   xmlns:inkscape="http://www.inkscape.org/namespaces/inkscape"
   xmlns:sodipodi="http://sodipodi.sourceforge.net/DTD/sodipodi-0.dtd"
   xmlns="http://www.w3.org/2000/svg"
   xmlns:svg="http://www.w3.org/2000/svg">
  <sodipodi:namedview
     id="namedview1"
     pagecolor="#ffffff"
     bordercolor="#cccccc"
     borderopacity="1"
     inkscape:showpageshadow="0"
     inkscape:pageopacity="1"
     inkscape:pagecheckerboard="0"
     inkscape:deskcolor="#d1d1d1"
     inkscape:document-units="mm"
     inkscape:zoom="0.96379011"
     inkscape:cx="56.547581"
     inkscape:cy="-14.007199"
     inkscape:window-width="1920"
     inkscape:window-height="1009"
     inkscape:window-x="-8"
     inkscape:window-y="-8"
     inkscape:window-maximized="1"
     inkscape:current-layer="layer1" />
  <defs
     id="defs1">
    <clipPath
       id="Clip8">
      <path
         d="M 0,0 H 130.001 V 110.001 H 0 Z"
         id="path9" />
    </clipPath>
    <radialGradient
       gradientTransform="rotate(22.857956,0.47824014,0.4000105)"
       r="140.561"
       fy="0.40000901"
       fx="0.478241"
       gradientUnits="userSpaceOnUse"
       cy="0.40000901"
       cx="0.478241"
       id="Grad2">
      <stop
         offset="0%"
         stop-color="#ffffff"
         stop-opacity="1"
         id="stop9" />
      <stop
         offset="100%"
         stop-color="#020246"
         stop-opacity="1"
         id="stop10" />
    </radialGradient>
  </defs>
  <g
     inkscape:label="Layer 1"
     inkscape:groupmode="layer"
     id="layer1"
     transform="translate(-30.162499,-99.571572)">
    <path
       d="M 30.338888,139.90661 V 99.747961 h 47.173179 v 40.158649 z"
       style="fill:#020246;fill-rule:evenodd;stroke:#181512;stroke-width:0.352777;stroke-linecap:butt;stroke-linejoin:miter;stroke-dasharray:none"
       id="path30" />
    <g
       clip-path="url(#Clip8)"
       clip-rule="evenodd"
       style="fill:none;stroke:none"
       id="Group11"
       transform="matrix(0.35277777,0,0,0.35277777,30.956241,100.27713)">
      <path
         d="m 120.211,29.96 c -0.644,3.901 -2.091,7.648 2.624,11.911 0.876,0.792 1.884,1.476 2.873,2.181 -0.986,-4.523 -2.582,-8.819 -4.698,-12.8 z M 102.13,97.559 c 2.314,-4.374 3.233,-9.411 1.724,-14.109 -2.083,-6.486 -2.105,-7.938 -1.068,-14.705 2.031,-13.256 -9.6864,-10.843 -10.1894,-21.992 -0.304,-6.735 2.128,-10.178 -5.4846,-14.2 -11.9238,-6.299 -4.7302,-12.796 -9.864,-18.069 -1.4356,-1.475 -2.6426,-2.406 -4.154,-3.104 -1.3914,2.38 -3.7008,6.405 -5.207,9.428 -2.2293,4.474 -5.1759,11.723 -5.1759,11.723 0,0 -0.8411,5.83 -0.8493,7.577 0,0 -7.1697,10.99 -10.1116,15.343 -0.5743,0.85 4.4905,3.046 7.2501,4.542 l -2.799,6.088 c 1.7466,1.348 3.7077,2.464 3.7077,2.464 -0.9,0.144 -0.7347,0.68 -1.7075,1.588 -0.0987,0.092 -0.2904,1.045 0.0405,1.081 0.015,0.485 0.1574,0.676 0.529,0.944 l 2.5031,1.324 c 1.5292,2.821 -0.5548,3.65 -0.8083,6.527 0.055,1.046 0.3298,2.558 1.1789,2.808 7.1765,2.116 21.7781,-1.547 23.2284,-1.417 0,0 7.2625,13.101 10.7675,19.679 2.253,-1.062 4.4204,-2.238 6.4894,-3.52 z m -8.4404,4.401 C 90.9746,97.626 82.1768,85.026 82.1768,85.026 75.2056,85.8 62.1921,87.056 59.5232,83.987 58.8633,83.228 58.5081,82.223 58.0965,81 c 0.1501,-1.641 0.1576,-2.63 0.7049,-4.166 0.2202,-0.618 0.9092,-1.569 0.6346,-2.169 l -2.5191,-1.586 c -2.2599,-1.578 -0.0123,-3.961 0.2324,-4.34 0.4888,0.289 -3.5848,-2.311 -3.5848,-2.311 l 2.394,-5.456 c 0,0 -7.3701,-2.896 -7.4777,-4.94 L 60.393,39.418 60.612,31.842 c 0,0 2.5614,-7.455 4.5972,-12.058 1.7593,-3.979 4.9669,-9.99 4.9669,-9.99 l 0.059,0.595 0.5349,-1.994 c 3.4563,0.916 6.9725,1.139 9.4602,3.694 4.9782,5.113 -1.2391,12.62 5.1979,17.107 2.9807,2.079 7.3285,2.478 9.4165,5.982 4.031,6.763 -3.799,12.192 3.617,18.897 2.4444,2.209 5.9094,3.573 7.1334,6.921 2.303,6.303 -2.767,11.647 -0.725,18.818 1.003,3.522 3.327,6.292 2.879,10.223 -0.189,1.659 -0.555,3.102 -1.077,4.422 0.988,-0.741 1.948,-1.508 2.878,-2.3 2.328,-4.382 3.255,-9.432 1.742,-14.142 -2.083,-6.486 -2.105,-7.938 -1.068,-14.705 C 112.255,50.056 100.538,52.469 100.035,41.32 99.7306,34.585 102.162,31.142 94.5496,27.12 82.6261,20.82 89.8196,14.324 84.6857,9.051 82.4601,6.765 80.7652,5.775 77.6729,4.956 L 77.8277,4.379 76.1263,4.352 C 48.1046,4.355 25.3869,26.941 25.384,54.8 c -0.0029,27.859 22.71,50.44 50.7316,50.437 5.2946,0 10.3996,-0.807 15.198,-2.303 z M 114.566,87.706 c 1.298,-1.498 2.5,-3.059 3.616,-4.702 1.218,-1.828 2.053,-3.229 2.821,-4.672 -0.115,-0.969 -0.321,-1.932 -0.626,-2.882 -2.083,-6.486 -2.105,-7.937 -1.068,-14.705 2.031,-13.256 -9.686,-10.843 -10.189,-21.992 -0.304,-6.734 2.127,-10.178 -5.485,-14.2 -10.2724,-5.427 -6.3564,-11 -8.3574,-15.811 -2.769,-1.283 -5.6675,-2.394 -8.6755,-3.314 l -0.6937,-0.14 c 0.6279,0.366 1.2181,0.812 1.7596,1.368 4.9786,5.113 -1.2391,12.62 5.1976,17.107 2.981,2.078 7.3294,2.478 9.4174,5.982 4.031,6.763 -3.7994,12.192 3.617,18.897 2.443,2.209 5.909,3.573 7.132,6.922 2.304,6.302 -2.766,11.646 -0.724,18.817 1.003,3.522 3.327,6.292 2.879,10.223 -0.105,0.918 -0.263,1.769 -0.621,3.102 z M 98.8886,10.553 c -0.039,3.846 -0.966,7.836 3.0624,10.644 2.981,2.078 7.329,2.477 9.417,5.981 4.031,6.763 -3.799,12.192 3.617,18.897 2.443,2.209 5.909,3.573 7.132,6.922 2.304,6.302 -2.766,11.646 -0.724,18.817 0.318,1.119 0.77,2.162 1.224,3.191 2.727,-6.189 4.241,-13.027 4.241,-20.216 10e-4,-1.885 -0.103,-3.746 -0.306,-5.577 -2.413,-5.557 -9.202,-6.235 -9.583,-14.663 -0.189,-4.19 0.681,-7.106 -0.468,-9.68 -0.917,-1.112 -1.883,-2.193 -2.896,-3.24 -0.602,-0.424 -1.303,-0.849 -2.12,-1.28 -3.865,-2.042 -5.722,-4.105 -6.641,-6.14 -1.894,-1.314 -3.883,-2.536 -5.9554,-3.656 z M 65.4177,2.305 C 30.8482,2.309 4.3813,26.068 4.3782,55.007 c -0.003,28.939 26.4589,52.692 61.0284,52.688 2.2618,0 4.4941,-0.102 6.6913,-0.3 C 44.5654,105.36 21.8265,82.591 21.8295,54.8 21.8323,27.823 43.2632,5.574 69.7024,2.427 68.2871,2.346 66.8583,2.305 65.4177,2.305 Z M 65.4179,4.90587e-7 C 100.911,-0.00399951 130.004,24.453 130.001,54.994 129.998,85.534 100.9,109.997 65.4064,110.001 29.9133,110.004 -0.00319974,85.548 2.56691e-7,55.007 0.00330026,24.467 29.9249,0.00400049 65.4179,4.90587e-7 Z M 66.237,44.968 c -0.731,0.807 -1.3149,-0.797 -1.6474,-1.638 -0.2678,-0.677 -0.3061,-1.238 -0.1059,-1.852 l -0.8915,-0.249 1.0109,-2.133 9.1773,3.928 -0.9907,0.77 -5.0644,-1.412 c -0.7035,1.303 -0.5327,1.53 -1.4883,2.586 z m -2.9878,-9.348 5.4851,-2.275 7.8776,6.188 -1.3294,0.95 -7.273,-4.234 -4.8508,0.872 z m 54.9328,47.384 c -1.11,1.63 -2.312,3.165 -3.468,4.17 1.31,-1.435 2.541,-2.926 3.673,-4.472 z"
         style="fill:url(#Grad2);fill-rule:evenodd;stroke:none"
         id="path50" />
    </g>
  </g>
</svg>
