<svg width="519.976" height="474.88" xmlns="http://www.w3.org/2000/svg" xmlns:xlink="http://www.w3.org/1999/xlink" id="svg1" xml:space="preserve" overflow="hidden"><defs id="defs1"><clipPath id="Clip0-6-6"><path d="M0 0 192.434 0 192.434 257.281 0 257.281Z" id="path1-0-6"/></clipPath><clipPath id="Clip1-0-4"><path d="M0 0 192.434 0 192.434 257.281 0 257.281Z" id="path2-7-1"/></clipPath></defs><g id="g1" transform="translate(50.0182 -0.00088867)"><g id="g2" transform="matrix(4.18179 0 0 3.77953 -275.73 -559.139)"><g id="Group2-2-5" stroke-width="0.559927" clip-rule="evenodd" clip-path="url(#Clip0-6-6)" transform="matrix(0.646159 0 0 0.488358 53.975 147.939)"><g id="Group1-3-5" clip-path="url(#Clip1-0-4)"><path d="M177.939 70.0869C176.986 79.2119 174.845 87.9749 181.824 97.9449 183.121 99.7989 184.614 101.399 186.077 103.049 184.618 92.4699 182.254 82.4209 179.121 73.1089ZM151.184 228.189C154.61 217.96 155.969 206.179 153.735 195.19 150.65 180.02 150.617 176.625 152.151 160.797 155.156 129.794 137.811 135.433 137.065 109.358 136.615 93.6059 140.213 85.5519 128.944 76.1439 111.293 61.4069 121.941 46.2132 114.34 33.8795 112.215 30.4307 110.428 28.2523 108.191 26.6193 106.132 32.1847 102.714 41.5984 100.485 48.6686 97.1853 59.1329 92.8253 76.0869 92.8253 76.0869 92.8253 76.0869 91.5813 89.7229 91.5693 93.8089 91.5693 93.8089 80.9583 119.511 76.6033 129.692 75.7533 131.679 83.2513 136.816 87.3363 140.316L83.1943 154.554C85.7803 157.707 88.6833 160.32 88.6833 160.32 87.3513 160.655 87.5953 161.909 86.1553 164.031 86.0093 164.247 85.7263 166.477 86.2153 166.561 86.2383 167.696 86.4493 168.141 86.9993 168.768L90.7043 171.865C92.9683 178.466 89.8833 180.404 89.5093 187.131 89.5903 189.578 89.9973 193.115 91.2543 193.701 101.878 198.65 123.491 190.086 125.638 190.391 125.638 190.391 136.391 221.035 141.579 236.421 144.915 233.938 148.122 231.187 151.184 228.189ZM138.692 238.481C134.673 228.344 121.647 198.871 121.647 198.871 111.328 200.681 92.0653 203.613 88.1143 196.435 87.1373 194.66 86.6113 192.31 86.0023 189.449 86.2243 185.612 86.2343 183.297 87.0443 179.705 87.3703 178.26 88.3903 176.037 87.9843 174.633L84.2543 170.923C80.9093 167.232 84.2353 161.659 84.5983 160.772 85.3213 161.448 79.2913 155.365 79.2913 155.365L82.8343 142.605C82.8343 142.605 71.9243 135.831 71.7643 131.048L89.3953 92.1929 89.7183 74.4739C89.7183 74.4739 93.5083 57.0396 96.5213 46.2722 99.1243 36.9679 103.872 22.908 103.872 22.908L103.959 24.3003 104.75 19.6364C109.867 21.7791 115.072 22.3022 118.754 28.2786 126.124 40.2383 116.922 57.7947 126.451 68.2929 130.864 73.1539 137.3 74.0899 140.392 82.2849 146.359 98.1029 134.769 110.799 145.749 126.484 149.366 131.652 154.496 134.843 156.308 142.675 159.718 157.415 152.214 169.914 155.238 186.687 156.723 194.925 160.164 201.404 159.502 210.598 159.222 214.479 158.679 217.853 157.908 220.94 159.37 219.207 160.791 217.413 162.167 215.561 165.612 205.313 166.983 193.501 164.744 182.485 161.659 167.314 161.627 163.919 163.16 148.092 166.164 117.088 148.821 122.728 148.074 96.6519 147.624 80.9009 151.222 72.8469 139.954 63.4379 122.302 48.7015 132.95 33.5076 125.349 21.1742 122.054 15.8271 119.545 13.512 114.968 11.595L115.197 10.2465 112.678 10.181C71.1993 10.181 37.5748 63.0019 37.5748 128.162 37.5748 193.321 71.1993 246.142 112.678 246.142 120.516 246.142 128.072 244.257 135.175 240.759ZM169.591 205.147C171.513 201.644 173.292 197.994 174.944 194.151 176.745 189.877 177.982 186.599 179.118 183.224 178.947 180.958 178.643 178.705 178.191 176.484 175.107 161.313 175.074 157.918 176.608 142.09 179.612 111.087 162.268 116.727 161.522 90.6509 161.072 74.8989 164.67 66.8449 153.401 57.4372 138.195 44.7415 143.99 31.707 141.028 20.4542 136.929 17.4517 132.638 14.853 128.186 12.6999L127.159 12.373C128.088 13.2301 128.962 14.2721 129.764 15.5732 137.133 27.5329 127.931 45.0894 137.46 55.5871 141.873 60.4479 148.309 61.3839 151.401 69.5799 157.369 85.3979 145.778 98.0939 156.758 113.779 160.375 118.947 165.505 122.138 167.317 129.97 170.727 144.71 163.223 157.209 166.247 173.981 167.732 182.22 171.173 188.699 170.511 197.892 170.356 200.039 170.121 202.031 169.591 205.147ZM146.373 24.6899C146.317 33.6855 144.946 43.0172 150.908 49.5858 155.321 54.4472 161.757 55.3828 164.849 63.5789 170.816 79.3959 159.226 92.0929 170.205 107.778 173.823 112.946 178.952 116.137 180.764 123.968 184.175 138.709 176.671 151.207 179.694 167.98 180.166 170.598 180.836 173.037 181.508 175.443 185.543 160.968 187.782 144.976 187.782 128.162 187.782 123.752 187.628 119.4 187.328 115.116 183.756 102.119 173.705 100.532 173.141 80.8189 172.861 71.0189 174.147 64.1989 172.446 58.1787 171.089 55.5777 169.658 53.0495 168.158 50.5993 167.268 49.6094 166.23 48.615 165.02 47.6049 159.299 42.8284 156.55 38.0037 155.19 33.2441 152.385 30.1696 149.441 27.312 146.373 24.6899ZM96.8273 5.3922C45.6551 5.3922 6.4809 60.9549 6.4809 128.64 6.4809 196.326 45.6551 251.889 96.8273 251.889 100.175 251.889 103.479 251.651 106.731 251.187 65.9763 246.422 32.3132 193.163 32.3132 128.162 32.3132 65.0649 64.0333 13.0324 103.169 5.6791 101.074 5.4892 98.9593 5.3922 96.8273 5.3922ZM96.8273 0C149.366 0 192.434 57.2096 192.434 128.64 192.434 200.071 149.366 257.281 96.8273 257.281 44.288 257.281 0 200.071 0 128.64 0 57.2096 44.288 0 96.8273 0ZM98.0463 105.175C96.9643 107.064 96.1003 103.311 95.6073 101.345 95.2113 99.7609 95.1543 98.4489 95.4503 97.0129L94.1313 96.4309 95.6273 91.4409 109.212 100.632 107.746 102.431 100.249 99.1279C99.2083 102.175 99.4603 102.706 98.0463 105.175ZM93.6223 83.3119 101.741 77.9909 113.403 92.4669 111.435 94.6889 100.668 84.7839 93.4883 86.8209ZM174.944 194.151C173.3 197.963 171.522 201.553 169.811 203.904 171.749 200.547 173.572 197.061 175.247 193.444Z" id="path46-8-0" fill="#2A3077" fill-rule="evenodd"/></g></g></g></g></svg>